{
	"asset":{
		"generator":"Khronos glTF Blender I/O v5.1.20",
		"version":"2.0"
	},
	"extensionsUsed":[
		"KHR_materials_emissive_strength"
	],
	"scene":0,
	"scenes":[
		{
			"name":"Scene",
			"nodes":[
				0,
				1,
				2,
				4,
				5,
				6,
				8,
				9,
				10
			]
		}
	],
	"nodes":[
		{
			"mesh":0,
			"name":"Sun"
		},
		{
			"mesh":1,
			"name":"Mercury",
			"scale":[
				2.5,
				2.5,
				2.5
			],
			"translation":[
				11,
				0,
				0
			]
		},
		{
			"mesh":2,
			"name":"Venus",
			"rotation":[
				0,
				0,
				-0.9997426867485046,
				0.022687353193759918
			],
			"scale":[
				2.5,
				2.5,
				2.5
			],
			"translation":[
				15,
				0,
				0
			]
		},
		{
			"mesh":3,
			"name":"Moon",
			"rotation":[
				0,
				0,
				0.20278728008270264,
				0.97922283411026
			],
			"translation":[
				1.8403455018997192,
				1.2867155075073242,
				0
			]
		},
		{
			"children":[
				3
			],
			"mesh":4,
			"name":"Earth",
			"rotation":[
				0,
				0,
				-0.20278729498386383,
				0.97922283411026
			],
			"scale":[
				2.5,
				2.5,
				2.5
			],
			"translation":[
				24,
				0,
				0
			]
		},
		{
			"mesh":5,
			"name":"Mars",
			"rotation":[
				0,
				0,
				-0.21814323961734772,
				0.9759168028831482
			],
			"scale":[
				2.5,
				2.5,
				2.5
			],
			"translation":[
				33,
				0,
				0
			]
		},
		{
			"mesh":6,
			"name":"Jupiter",
			"rotation":[
				0,
				0,
				-0.027049308642745018,
				0.9996342062950134
			],
			"scale":[
				2.5,
				2.5,
				2.5
			],
			"translation":[
				46,
				0,
				0
			]
		},
		{
			"mesh":7,
			"name":"SaturnRings",
			"rotation":[
				0,
				0,
				0.2308988869190216,
				0.9729777574539185
			]
		},
		{
			"children":[
				7
			],
			"mesh":8,
			"name":"Saturn",
			"rotation":[
				0,
				0,
				-0.2308988869190216,
				0.9729777574539185
			],
			"scale":[
				2.5,
				2.5,
				2.5
			],
			"translation":[
				72,
				0,
				0
			]
		},
		{
			"mesh":9,
			"name":"Uranus",
			"rotation":[
				0,
				0,
				-0.753563404083252,
				0.6573752760887146
			],
			"scale":[
				2.5,
				2.5,
				2.5
			],
			"translation":[
				95,
				0,
				0
			]
		},
		{
			"mesh":10,
			"name":"Neptune",
			"rotation":[
				0,
				0,
				-0.2444612681865692,
				0.9696590900421143
			],
			"scale":[
				2.5,
				2.5,
				2.5
			],
			"translation":[
				110,
				0,
				0
			]
		}
	],
	"materials":[
		{
			"doubleSided":true,
			"emissiveFactor":[
				1,
				1,
				1
			],
			"emissiveTexture":{
				"index":0
			},
			"extensions":{
				"KHR_materials_emissive_strength":{
					"emissiveStrength":5
				}
			},
			"name":"SunMat",
			"pbrMetallicRoughness":{
				"baseColorFactor":[
					0,
					0,
					0,
					1
				],
				"metallicFactor":0
			}
		},
		{
			"doubleSided":true,
			"name":"MercuryMat",
			"pbrMetallicRoughness":{
				"baseColorTexture":{
					"index":1
				},
				"metallicFactor":0,
				"roughnessFactor":0.949999988079071
			}
		},
		{
			"doubleSided":true,
			"name":"VenusMat",
			"pbrMetallicRoughness":{
				"baseColorTexture":{
					"index":2
				},
				"metallicFactor":0,
				"roughnessFactor":0.800000011920929
			}
		},
		{
			"doubleSided":true,
			"name":"MoonMat",
			"pbrMetallicRoughness":{
				"baseColorTexture":{
					"index":3
				},
				"metallicFactor":0,
				"roughnessFactor":0.9700000286102295
			}
		},
		{
			"doubleSided":true,
			"name":"EarthMat",
			"pbrMetallicRoughness":{
				"baseColorTexture":{
					"index":4
				},
				"metallicFactor":0,
				"roughnessFactor":0.699999988079071
			}
		},
		{
			"doubleSided":true,
			"name":"MarsMat",
			"pbrMetallicRoughness":{
				"baseColorTexture":{
					"index":5
				},
				"metallicFactor":0,
				"roughnessFactor":0.949999988079071
			}
		},
		{
			"doubleSided":true,
			"name":"JupiterMat",
			"pbrMetallicRoughness":{
				"baseColorTexture":{
					"index":6
				},
				"metallicFactor":0,
				"roughnessFactor":0.6499999761581421
			}
		},
		{
			"alphaMode":"BLEND",
			"doubleSided":true,
			"name":"SaturnRingsMat",
			"pbrMetallicRoughness":{
				"baseColorTexture":{
					"index":7
				},
				"metallicFactor":0,
				"roughnessFactor":0.8500000238418579
			}
		},
		{
			"doubleSided":true,
			"name":"SaturnMat",
			"pbrMetallicRoughness":{
				"baseColorTexture":{
					"index":8
				},
				"metallicFactor":0,
				"roughnessFactor":0.6499999761581421
			}
		},
		{
			"doubleSided":true,
			"name":"UranusMat",
			"pbrMetallicRoughness":{
				"baseColorTexture":{
					"index":9
				},
				"metallicFactor":0,
				"roughnessFactor":0.6000000238418579
			}
		},
		{
			"doubleSided":true,
			"name":"NeptuneMat",
			"pbrMetallicRoughness":{
				"baseColorTexture":{
					"index":10
				},
				"metallicFactor":0,
				"roughnessFactor":0.6000000238418579
			}
		}
	],
	"meshes":[
		{
			"name":"SunMesh",
			"primitives":[
				{
					"attributes":{
						"POSITION":0,
						"NORMAL":1,
						"TEXCOORD_0":2
					},
					"indices":3,
					"material":0
				}
			]
		},
		{
			"name":"MercuryMesh",
			"primitives":[
				{
					"attributes":{
						"POSITION":4,
						"NORMAL":5,
						"TEXCOORD_0":6
					},
					"indices":7,
					"material":1
				}
			]
		},
		{
			"name":"VenusMesh",
			"primitives":[
				{
					"attributes":{
						"POSITION":8,
						"NORMAL":9,
						"TEXCOORD_0":10
					},
					"indices":11,
					"material":2
				}
			]
		},
		{
			"name":"MoonMesh",
			"primitives":[
				{
					"attributes":{
						"POSITION":12,
						"NORMAL":13,
						"TEXCOORD_0":14
					},
					"indices":15,
					"material":3
				}
			]
		},
		{
			"name":"EarthMesh",
			"primitives":[
				{
					"attributes":{
						"POSITION":16,
						"NORMAL":17,
						"TEXCOORD_0":18
					},
					"indices":19,
					"material":4
				}
			]
		},
		{
			"name":"MarsMesh",
			"primitives":[
				{
					"attributes":{
						"POSITION":20,
						"NORMAL":21,
						"TEXCOORD_0":22
					},
					"indices":23,
					"material":5
				}
			]
		},
		{
			"name":"JupiterMesh",
			"primitives":[
				{
					"attributes":{
						"POSITION":24,
						"NORMAL":25,
						"TEXCOORD_0":26
					},
					"indices":27,
					"material":6
				}
			]
		},
		{
			"name":"SaturnRingsMesh",
			"primitives":[
				{
					"attributes":{
						"POSITION":28,
						"NORMAL":29,
						"TEXCOORD_0":30
					},
					"indices":31,
					"material":7
				}
			]
		},
		{
			"name":"SaturnMesh",
			"primitives":[
				{
					"attributes":{
						"POSITION":32,
						"NORMAL":33,
						"TEXCOORD_0":34
					},
					"indices":35,
					"material":8
				}
			]
		},
		{
			"name":"UranusMesh",
			"primitives":[
				{
					"attributes":{
						"POSITION":36,
						"NORMAL":37,
						"TEXCOORD_0":38
					},
					"indices":39,
					"material":9
				}
			]
		},
		{
			"name":"NeptuneMesh",
			"primitives":[
				{
					"attributes":{
						"POSITION":40,
						"NORMAL":41,
						"TEXCOORD_0":42
					},
					"indices":43,
					"material":10
				}
			]
		}
	],
	"textures":[
		{
			"sampler":0,
			"source":0
		},
		{
			"sampler":0,
			"source":1
		},
		{
			"sampler":0,
			"source":2
		},
		{
			"sampler":0,
			"source":3
		},
		{
			"sampler":0,
			"source":4
		},
		{
			"sampler":0,
			"source":5
		},
		{
			"sampler":0,
			"source":6
		},
		{
			"sampler":0,
			"source":7
		},
		{
			"sampler":0,
			"source":8
		},
		{
			"sampler":0,
			"source":9
		},
		{
			"sampler":0,
			"source":10
		}
	],
	"images":[
		{
			"mimeType":"image/png",
			"name":"SunTex",
			"uri":"SunTex.png"
		},
		{
			"mimeType":"image/png",
			"name":"MercuryTex",
			"uri":"MercuryTex.png"
		},
		{
			"mimeType":"image/png",
			"name":"VenusTex",
			"uri":"VenusTex.png"
		},
		{
			"mimeType":"image/png",
			"name":"MoonTex",
			"uri":"MoonTex.png"
		},
		{
			"mimeType":"image/png",
			"name":"EarthTex",
			"uri":"EarthTex.png"
		},
		{
			"mimeType":"image/png",
			"name":"MarsTex",
			"uri":"MarsTex.png"
		},
		{
			"mimeType":"image/png",
			"name":"JupiterTex",
			"uri":"JupiterTex.png"
		},
		{
			"mimeType":"image/png",
			"name":"SaturnRingsTex",
			"uri":"SaturnRingsTex.png"
		},
		{
			"mimeType":"image/png",
			"name":"SaturnTex",
			"uri":"SaturnTex.png"
		},
		{
			"mimeType":"image/png",
			"name":"UranusTex",
			"uri":"UranusTex.png"
		},
		{
			"mimeType":"image/png",
			"name":"NeptuneTex",
			"uri":"NeptuneTex.png"
		}
	],
	"accessors":[
		{
			"bufferView":0,
			"componentType":5126,
			"count":4751,
			"max":[
				5.000000476837158,
				5,
				5.000001430511475
			],
			"min":[
				-5.000002861022949,
				-5,
				-5
			],
			"type":"VEC3"
		},
		{
			"bufferView":1,
			"componentType":5126,
			"count":4751,
			"type":"VEC3"
		},
		{
			"bufferView":2,
			"componentType":5126,
			"count":4751,
			"type":"VEC2"
		},
		{
			"bufferView":3,
			"componentType":5123,
			"count":27072,
			"type":"SCALAR"
		},
		{
			"bufferView":4,
			"componentType":5126,
			"count":2143,
			"max":[
				0.3800000548362732,
				0.3799999952316284,
				0.38000011444091797
			],
			"min":[
				-0.38000017404556274,
				-0.3799999952316284,
				-0.3800002634525299
			],
			"type":"VEC3"
		},
		{
			"bufferView":5,
			"componentType":5126,
			"count":2143,
			"type":"VEC3"
		},
		{
			"bufferView":6,
			"componentType":5126,
			"count":2143,
			"type":"VEC2"
		},
		{
			"bufferView":7,
			"componentType":5123,
			"count":11904,
			"type":"SCALAR"
		},
		{
			"bufferView":8,
			"componentType":5126,
			"count":2143,
			"max":[
				0.9499997496604919,
				0.949999988079071,
				0.9499996304512024
			],
			"min":[
				-0.9499994516372681,
				-0.949999988079071,
				-0.949999988079071
			],
			"type":"VEC3"
		},
		{
			"bufferView":9,
			"componentType":5126,
			"count":2143,
			"type":"VEC3"
		},
		{
			"bufferView":10,
			"componentType":5126,
			"count":2143,
			"type":"VEC2"
		},
		{
			"bufferView":11,
			"componentType":5123,
			"count":11904,
			"type":"SCALAR"
		},
		{
			"bufferView":12,
			"componentType":5126,
			"count":2143,
			"max":[
				0.2699999511241913,
				0.27000001072883606,
				0.2699999213218689
			],
			"min":[
				-0.2699999213218689,
				-0.27000001072883606,
				-0.27000001072883606
			],
			"type":"VEC3"
		},
		{
			"bufferView":13,
			"componentType":5126,
			"count":2143,
			"type":"VEC3"
		},
		{
			"bufferView":14,
			"componentType":5126,
			"count":2143,
			"type":"VEC2"
		},
		{
			"bufferView":15,
			"componentType":5123,
			"count":11904,
			"type":"SCALAR"
		},
		{
			"bufferView":16,
			"componentType":5126,
			"count":2143,
			"max":[
				0.9999998807907104,
				1,
				0.9999997615814209
			],
			"min":[
				-0.9999997019767761,
				-1,
				-1
			],
			"type":"VEC3"
		},
		{
			"bufferView":17,
			"componentType":5126,
			"count":2143,
			"type":"VEC3"
		},
		{
			"bufferView":18,
			"componentType":5126,
			"count":2143,
			"type":"VEC2"
		},
		{
			"bufferView":19,
			"componentType":5123,
			"count":11904,
			"type":"SCALAR"
		},
		{
			"bufferView":20,
			"componentType":5126,
			"count":2143,
			"max":[
				0.5299999713897705,
				0.5299999713897705,
				0.5299999713897705
			],
			"min":[
				-0.5299999713897705,
				-0.5299999713897705,
				-0.5299999713897705
			],
			"type":"VEC3"
		},
		{
			"bufferView":21,
			"componentType":5126,
			"count":2143,
			"type":"VEC3"
		},
		{
			"bufferView":22,
			"componentType":5126,
			"count":2143,
			"type":"VEC2"
		},
		{
			"bufferView":23,
			"componentType":5123,
			"count":11904,
			"type":"SCALAR"
		},
		{
			"bufferView":24,
			"componentType":5126,
			"count":4751,
			"max":[
				3.2000012397766113,
				3.200000047683716,
				3.200002670288086
			],
			"min":[
				-3.2000036239624023,
				-3.200000047683716,
				-3.200000047683716
			],
			"type":"VEC3"
		},
		{
			"bufferView":25,
			"componentType":5126,
			"count":4751,
			"type":"VEC3"
		},
		{
			"bufferView":26,
			"componentType":5126,
			"count":4751,
			"type":"VEC2"
		},
		{
			"bufferView":27,
			"componentType":5123,
			"count":27072,
			"type":"SCALAR"
		},
		{
			"bufferView":28,
			"componentType":5126,
			"count":514,
			"max":[
				6.210000038146973,
				0,
				6.210000038146973
			],
			"min":[
				-6.210000038146973,
				0,
				-6.210000038146973
			],
			"type":"VEC3"
		},
		{
			"bufferView":29,
			"componentType":5126,
			"count":514,
			"type":"VEC3"
		},
		{
			"bufferView":30,
			"componentType":5126,
			"count":514,
			"type":"VEC2"
		},
		{
			"bufferView":31,
			"componentType":5123,
			"count":1536,
			"type":"SCALAR"
		},
		{
			"bufferView":32,
			"componentType":5126,
			"count":4751,
			"max":[
				2.7000012397766113,
				2.700000047683716,
				2.7000021934509277
			],
			"min":[
				-2.7000033855438232,
				-2.700000047683716,
				-2.700000047683716
			],
			"type":"VEC3"
		},
		{
			"bufferView":33,
			"componentType":5126,
			"count":4751,
			"type":"VEC3"
		},
		{
			"bufferView":34,
			"componentType":5126,
			"count":4751,
			"type":"VEC2"
		},
		{
			"bufferView":35,
			"componentType":5123,
			"count":27072,
			"type":"SCALAR"
		},
		{
			"bufferView":36,
			"componentType":5126,
			"count":2143,
			"max":[
				1.5999997854232788,
				1.600000023841858,
				1.5999995470046997
			],
			"min":[
				-1.599999189376831,
				-1.600000023841858,
				-1.600000023841858
			],
			"type":"VEC3"
		},
		{
			"bufferView":37,
			"componentType":5126,
			"count":2143,
			"type":"VEC3"
		},
		{
			"bufferView":38,
			"componentType":5126,
			"count":2143,
			"type":"VEC2"
		},
		{
			"bufferView":39,
			"componentType":5123,
			"count":11904,
			"type":"SCALAR"
		},
		{
			"bufferView":40,
			"componentType":5126,
			"count":2143,
			"max":[
				1.5499999523162842,
				1.5499999523162842,
				1.5500000715255737
			],
			"min":[
				-1.5500001907348633,
				-1.5499999523162842,
				-1.5500003099441528
			],
			"type":"VEC3"
		},
		{
			"bufferView":41,
			"componentType":5126,
			"count":2143,
			"type":"VEC3"
		},
		{
			"bufferView":42,
			"componentType":5126,
			"count":2143,
			"type":"VEC2"
		},
		{
			"bufferView":43,
			"componentType":5123,
			"count":11904,
			"type":"SCALAR"
		}
	],
	"bufferViews":[
		{
			"buffer":0,
			"byteLength":57012,
			"byteOffset":0,
			"target":34962
		},
		{
			"buffer":0,
			"byteLength":57012,
			"byteOffset":57012,
			"target":34962
		},
		{
			"buffer":0,
			"byteLength":38008,
			"byteOffset":114024,
			"target":34962
		},
		{
			"buffer":0,
			"byteLength":54144,
			"byteOffset":152032,
			"target":34963
		},
		{
			"buffer":0,
			"byteLength":25716,
			"byteOffset":206176,
			"target":34962
		},
		{
			"buffer":0,
			"byteLength":25716,
			"byteOffset":231892,
			"target":34962
		},
		{
			"buffer":0,
			"byteLength":17144,
			"byteOffset":257608,
			"target":34962
		},
		{
			"buffer":0,
			"byteLength":23808,
			"byteOffset":274752,
			"target":34963
		},
		{
			"buffer":0,
			"byteLength":25716,
			"byteOffset":298560,
			"target":34962
		},
		{
			"buffer":0,
			"byteLength":25716,
			"byteOffset":324276,
			"target":34962
		},
		{
			"buffer":0,
			"byteLength":17144,
			"byteOffset":349992,
			"target":34962
		},
		{
			"buffer":0,
			"byteLength":23808,
			"byteOffset":367136,
			"target":34963
		},
		{
			"buffer":0,
			"byteLength":25716,
			"byteOffset":390944,
			"target":34962
		},
		{
			"buffer":0,
			"byteLength":25716,
			"byteOffset":416660,
			"target":34962
		},
		{
			"buffer":0,
			"byteLength":17144,
			"byteOffset":442376,
			"target":34962
		},
		{
			"buffer":0,
			"byteLength":23808,
			"byteOffset":459520,
			"target":34963
		},
		{
			"buffer":0,
			"byteLength":25716,
			"byteOffset":483328,
			"target":34962
		},
		{
			"buffer":0,
			"byteLength":25716,
			"byteOffset":509044,
			"target":34962
		},
		{
			"buffer":0,
			"byteLength":17144,
			"byteOffset":534760,
			"target":34962
		},
		{
			"buffer":0,
			"byteLength":23808,
			"byteOffset":551904,
			"target":34963
		},
		{
			"buffer":0,
			"byteLength":25716,
			"byteOffset":575712,
			"target":34962
		},
		{
			"buffer":0,
			"byteLength":25716,
			"byteOffset":601428,
			"target":34962
		},
		{
			"buffer":0,
			"byteLength":17144,
			"byteOffset":627144,
			"target":34962
		},
		{
			"buffer":0,
			"byteLength":23808,
			"byteOffset":644288,
			"target":34963
		},
		{
			"buffer":0,
			"byteLength":57012,
			"byteOffset":668096,
			"target":34962
		},
		{
			"buffer":0,
			"byteLength":57012,
			"byteOffset":725108,
			"target":34962
		},
		{
			"buffer":0,
			"byteLength":38008,
			"byteOffset":782120,
			"target":34962
		},
		{
			"buffer":0,
			"byteLength":54144,
			"byteOffset":820128,
			"target":34963
		},
		{
			"buffer":0,
			"byteLength":6168,
			"byteOffset":874272,
			"target":34962
		},
		{
			"buffer":0,
			"byteLength":6168,
			"byteOffset":880440,
			"target":34962
		},
		{
			"buffer":0,
			"byteLength":4112,
			"byteOffset":886608,
			"target":34962
		},
		{
			"buffer":0,
			"byteLength":3072,
			"byteOffset":890720,
			"target":34963
		},
		{
			"buffer":0,
			"byteLength":57012,
			"byteOffset":893792,
			"target":34962
		},
		{
			"buffer":0,
			"byteLength":57012,
			"byteOffset":950804,
			"target":34962
		},
		{
			"buffer":0,
			"byteLength":38008,
			"byteOffset":1007816,
			"target":34962
		},
		{
			"buffer":0,
			"byteLength":54144,
			"byteOffset":1045824,
			"target":34963
		},
		{
			"buffer":0,
			"byteLength":25716,
			"byteOffset":1099968,
			"target":34962
		},
		{
			"buffer":0,
			"byteLength":25716,
			"byteOffset":1125684,
			"target":34962
		},
		{
			"buffer":0,
			"byteLength":17144,
			"byteOffset":1151400,
			"target":34962
		},
		{
			"buffer":0,
			"byteLength":23808,
			"byteOffset":1168544,
			"target":34963
		},
		{
			"buffer":0,
			"byteLength":25716,
			"byteOffset":1192352,
			"target":34962
		},
		{
			"buffer":0,
			"byteLength":25716,
			"byteOffset":1218068,
			"target":34962
		},
		{
			"buffer":0,
			"byteLength":17144,
			"byteOffset":1243784,
			"target":34962
		},
		{
			"buffer":0,
			"byteLength":23808,
			"byteOffset":1260928,
			"target":34963
		}
	],
	"samplers":[
		{
			"magFilter":9729,
			"minFilter":9987
		}
	],
	"buffers":[
		{
			"byteLength":1284736,
			"uri":"solar-system.bin"
		}
	]
}
